<svg xmlns="http://www.w3.org/2000/svg" viewBox="0 0 220 310">
  <defs>
    <linearGradient id="bg" x1="0" y1="0" x2="0.3" y2="1">
      <stop offset="0%" stop-color="#4a1a1a"/>
      <stop offset="50%" stop-color="#291010"/>
      <stop offset="100%" stop-color="#200a0a"/>
    </linearGradient>
    <pattern id="tex" width="4" height="4" patternUnits="userSpaceOnUse">
      <rect width="4" height="4" fill="rgba(255,255,255,0.03)"/>
      <circle cx="2" cy="2" r="0.5" fill="rgba(255,255,255,0.06)"/>
    </pattern>
    <filter id="grain"><feTurbulence type="fractalNoise" baseFrequency="0.9" numOctaves="4" result="n"/><feColorMatrix type="saturate" values="0" in="n" result="g"/><feBlend in="SourceGraphic" in2="g" mode="overlay"/></filter>
  </defs>
  <rect width="220" height="310" rx="12" fill="url(#bg)"/>
  <rect width="220" height="310" rx="12" fill="url(#tex)"/>
  <rect x="3" y="3" width="214" height="304" rx="10" fill="none" stroke="#d94a4a" stroke-width="1.5" opacity="0.4"/>
  <rect x="8" y="8" width="204" height="294" rx="8" fill="none" stroke="#d94a4a" stroke-width="0.5" opacity="0.2"/>
  <!-- Corner flourishes -->
  <g opacity="0.3" fill="#d94a4a">
    <path d="M16,8 Q12,8 12,12 L12,24 Q12,16 20,12 L28,8 Z"/>
    <path d="M204,8 Q208,8 208,12 L208,24 Q208,16 200,12 L192,8 Z"/>
    <path d="M16,302 Q12,302 12,298 L12,286 Q12,294 20,298 L28,302 Z"/>
    <path d="M204,302 Q208,302 208,298 L208,286 Q208,294 200,298 L192,302 Z"/>
  </g>
</svg>