<svg xmlns="http://www.w3.org/2000/svg" viewBox="0 0 220 310">
  <defs>
    <linearGradient id="rn" x1="0" y1="0" x2="0" y2="1">
      <stop offset="0%" stop-color="rgba(200,200,255,0.2)"/>
      <stop offset="100%" stop-color="rgba(200,200,255,0.05)"/>
    </linearGradient>
  </defs>
  <!-- Left rune column -->
  <g fill="none" stroke="rgba(180,200,255,0.15)" stroke-width="0.8" transform="translate(8,40)">
    <path d="M0,0 L4,8 L0,16 M0,8 L6,8"/>
    <path d="M0,24 L3,28 L6,24 L3,32 Z"/>
    <path d="M0,40 L6,44 L0,48 M3,40 L3,48"/>
    <path d="M0,56 L6,60 M0,60 L6,56 M3,54 L3,62"/>
    <path d="M1,72 A4,4 0 1,1 5,72 M3,68 L3,80"/>
    <path d="M0,86 L6,86 L3,94 Z"/>
    <path d="M0,102 L4,110 L0,118 M0,110 L6,110"/>
    <path d="M0,126 L3,130 L6,126 L3,134 Z"/>
  </g>
  <!-- Right rune column (mirrored) -->
  <g fill="none" stroke="rgba(180,200,255,0.15)" stroke-width="0.8" transform="translate(206,40)">
    <path d="M0,0 L4,8 L0,16 M0,8 L6,8"/>
    <path d="M0,24 L3,28 L6,24 L3,32 Z"/>
    <path d="M0,40 L6,44 L0,48 M3,40 L3,48"/>
    <path d="M0,56 L6,60 M0,60 L6,56 M3,54 L3,62"/>
    <path d="M1,72 A4,4 0 1,1 5,72 M3,68 L3,80"/>
    <path d="M0,86 L6,86 L3,94 Z"/>
  </g>
  <!-- Top rune row -->
  <g fill="none" stroke="rgba(180,200,255,0.12)" stroke-width="0.6" transform="translate(40,10)">
    <path d="M0,0 L6,4 L12,0 M6,0 L6,6"/>
    <path d="M24,0 L28,4 L32,0 L28,6 Z"/>
    <path d="M44,0 L50,4 L44,8 M47,0 L47,8"/>
    <path d="M64,1 A4,3 0 1,1 72,1"/>
    <path d="M84,0 L90,4 L84,8 M84,4 L92,4"/>
    <path d="M104,0 L108,4 L112,0 L108,6 Z"/>
  </g>
</svg>