<svg xmlns="http://www.w3.org/2000/svg" viewBox="0 0 220 310">
  <defs>
    <linearGradient id="bbg" x1="0" y1="0" x2="0.5" y2="1">
      <stop offset="0%" stop-color="#141428"/>
      <stop offset="100%" stop-color="#0a0a1a"/>
    </linearGradient>
    <pattern id="dia" width="16" height="16" patternUnits="userSpaceOnUse">
      <path d="M8,0 L16,8 L8,16 L0,8 Z" fill="none" stroke="#a0a0ff" stroke-width="0.5" opacity="0.15"/>
    </pattern>
    <radialGradient id="cg" cx="0.5" cy="0.5" r="0.5">
      <stop offset="0%" stop-color="#a0a0ff" stop-opacity="0.3"/>
      <stop offset="100%" stop-color="#a0a0ff" stop-opacity="0"/>
    </radialGradient>
  </defs>
  <rect width="220" height="310" rx="12" fill="url(#bbg)"/>
  <rect width="220" height="310" rx="12" fill="url(#dia)"/>
  <rect x="6" y="6" width="208" height="298" rx="9" fill="none" stroke="#a0a0ff" stroke-width="2" opacity="0.4"/>
  <rect x="12" y="12" width="196" height="286" rx="7" fill="none" stroke="#a0a0ff" stroke-width="0.8" opacity="0.2"/>
  <!-- Center emblem glow -->
  <ellipse cx="110" cy="155" rx="50" ry="50" fill="url(#cg)"/>
  <!-- Center emblem: stylized N -->
  <g transform="translate(110,155)" fill="none" stroke="#a0a0ff" stroke-width="2" opacity="0.6">
    <polygon points="-20,-25 -20,25 -12,25 8,-15 8,25 20,25 20,-25 12,-25 -8,15 -8,-25" fill="#a0a0ff" fill-opacity="0.15"/>
    <circle r="35" stroke-width="1.5"/>
    <circle r="30" stroke-width="0.5" opacity="0.4"/>
    
    <path d="M0,-40 L5,-30 L0,-20 L-5,-30 Z" fill="rgba(160,160,255,0.1)"/>
    <path d="M0,20 L5,30 L0,40 L-5,30 Z" fill="rgba(160,160,255,0.1)"/>
    <line x1="-40" y1="0" x2="40" y2="0" opacity="0.15"/>
  
  </g>
  <!-- Corner stars -->
  <g fill="#a0a0ff" opacity="0.3">
    <polygon points="20,20 22,26 28,26 23,30 25,36 20,32 15,36 17,30 12,26 18,26" transform="scale(0.6) translate(12,12)"/>
    <polygon points="20,20 22,26 28,26 23,30 25,36 20,32 15,36 17,30 12,26 18,26" transform="scale(0.6) translate(338,12)"/>
    <polygon points="20,20 22,26 28,26 23,30 25,36 20,32 15,36 17,30 12,26 18,26" transform="scale(0.6) translate(12,488)"/>
    <polygon points="20,20 22,26 28,26 23,30 25,36 20,32 15,36 17,30 12,26 18,26" transform="scale(0.6) translate(338,488)"/>
  </g>
</svg>